<?xml version="1.0" standalone="no"?><!DOCTYPE svg PUBLIC "-//W3C//DTD SVG 1.1//EN" "http://www.w3.org/Graphics/SVG/1.1/DTD/svg11.dtd"><svg t="1711771526146" class="icon" viewBox="0 0 1067 1024" version="1.1" xmlns="http://www.w3.org/2000/svg" p-id="4722" xmlns:xlink="http://www.w3.org/1999/xlink" width="208.3984375" height="200"><path d="M21.323329 102.350957h1016.178681l4.264623 870.473565H25.587952z" fill="#FF8F8F" p-id="4723"></path><path d="M21.323329 85.292464h1016.178681v62.084385H21.323329zM25.587952 682.668088h1016.178681v57.487121H25.587952zM25.587952 383.982408h1016.178681v57.653441H25.587952z" fill="#FFFFFF" opacity=".28" p-id="4724"></path><path d="M25.587952 366.923916h1016.178681v34.116985H25.587952zM25.587952 665.609595h1016.178681v34.116986H25.587952z" fill="#6E6E96" p-id="4725"></path><path d="M213.342254 383.982408h34.116985v298.68568h-34.116985zM804.141829 383.982408h34.116985v298.68568h-34.116985zM542.51146 102.090815l4.251829 281.635716-34.116985 0.516019-4.25183-281.635716zM512.676156 682.668088h34.116986v290.156434h-34.116986z" fill="#6E6E96" p-id="4726"></path><path d="M25.587952 906.479778h1016.178681v66.349008H25.587952zM25.587952 612.220778h1016.178681v70.451575H25.587952zM25.587952 322.222135h1016.178681v61.756009H25.587952z" fill="#6E6E96" opacity=".15" p-id="4727"></path><path d="M1037.50201 977.089145H21.323329a17.058493 17.058493 0 0 1-17.058493-16.973201L0.000213 89.64238A17.062757 17.062757 0 0 1 17.058706 72.498594h1016.178681a17.058493 17.058493 0 0 1 17.058493 16.973201l4.264623 870.473565a17.058493 17.058493 0 0 1-17.058493 17.143785z m-999.20548-34.116986h982.061695L1016.264187 106.61558H34.202491l4.094039 836.356579z" fill="#6E6E96" p-id="4728"></path></svg>