<?xml version="1.0" standalone="no"?><!DOCTYPE svg PUBLIC "-//W3C//DTD SVG 1.1//EN" "http://www.w3.org/Graphics/SVG/1.1/DTD/svg11.dtd"><svg t="1711771469056" class="icon" viewBox="0 0 1103 1024" version="1.1" xmlns="http://www.w3.org/2000/svg" p-id="4526" xmlns:xlink="http://www.w3.org/1999/xlink" width="215.4296875" height="200"><path d="M536.076573 989.1825h-17.210483c-0.00431 0 7.784155 1.702515 17.210483 0z m310.267112-0.01293c-45.64463 0.01293-49.631532-37.856165-49.894451-47.605755v-58.419955h-227.662831v56.122638c0 36.787245-18.262162 47.321284-32.69259 49.885831" fill="#F0F0FF" p-id="4527"></path><path d="M526.667486 1007.289497c-7.848808 0-16.938942-1.538728-21.602539-7.775535l-20.641372-27.572116h49.928932c5.728207-1.172364 17.188932-5.292881 17.188932-32.671038v-73.363291h262.144138v75.406308c0.78876 25.292039 18.163029 30.619401 32.632247 30.619401h0.017241l0.00862 34.481307h-0.025861c-48.239349 0-66.303244-34.675265-67.104934-64.38091l-0.00862-0.465498v-41.179301h-193.181524v38.881984c0 52.777951-32.770172 64.337809-46.885957 66.859255v0.02155c-2.426622 0.435327-7.163492 1.137883-12.469303 1.137884z" fill="#6E6E96" p-id="4528"></path><path d="M283.380313 798.936198V296.793541c0-34.30459 28.067784-62.372375 62.376685-62.372374h673.678539c34.308901 0 62.393925 28.067784 62.393925 62.372374v502.142657" fill="#9F9FBD" p-id="4529"></path><path d="M1081.825152 749.037436v71.73836c0 34.30459-28.093645 62.380995-62.389615 62.380995H345.761308c-34.313211 0-62.376685-28.085025-62.376685-62.380995v-71.73836h798.440529z" fill="#F0F0FF" p-id="4530"></path><path d="M1019.444157 900.393134H345.761308c-43.903324 0-79.617338-35.718324-79.617338-79.621648v-71.73836a17.240654 17.240654 0 0 1 34.481307 0v71.73836c0 24.886883 20.249148 45.140341 45.136031 45.140341h673.682849c24.891194 0 45.148962-20.249148 45.148962-45.140341v-54.497706h-491.100018a17.240654 17.240654 0 0 1 0-34.481308h525.581325v88.979014c-0.00431 43.903324-35.726944 79.621648-79.630269 79.621648z" fill="#6E6E96" p-id="4531"></path><path d="M1081.825152 816.176851a17.240654 17.240654 0 0 1-17.240653-17.240653V296.793541c0-24.882573-20.253458-45.131721-45.153272-45.13172H573.493101a17.240654 17.240654 0 0 1 0-34.481308h445.942436c43.911945 0 79.634579 35.714014 79.634579 79.613028v502.142657a17.249274 17.249274 0 0 1-17.244964 17.240653zM300.620967 798.936198h-34.481308V296.793541c0-43.899014 35.714014-79.613028 79.617339-79.613028v34.481308c-24.886883 0-45.136031 20.244837-45.136031 45.13172v502.142657z" fill="#6E6E96" p-id="4532"></path><path d="M283.380313 718.676645h798.440529v17.637189H283.380313zM568.769162 883.14386h227.6499v39.804359H568.769162z" fill="#6E6E96" opacity=".15" p-id="4533"></path><path d="M863.597269 1006.423154h-364.28208a17.240654 17.240654 0 0 1 0-34.481308h364.28208a17.240654 17.240654 0 0 1 0 34.481308z" fill="#6E6E96" p-id="4534"></path><path d="M1019.452778 836.305314H345.761308c-34.313211 0-62.376685-28.076404-62.376685-62.380994v41.618937c0 34.308901 28.059164 62.389615 62.376685 62.389616h673.69147c34.29597 0 62.389615-28.059164 62.389615-62.385305v-41.623248c-0.017241 34.321831-28.097955 62.380995-62.389615 62.380994z" fill="#6E6E96" opacity=".15" p-id="4535"></path><path d="M338.94694 297.121114h681.255806v393.690325H338.94694z" fill="#A2C8F2" p-id="4536"></path><path d="M582.203941 686.10043l430.274992-388.979316v125.628332l-285.371608 263.350984z" fill="#DEEFFF" opacity=".31" p-id="4537"></path><path d="M1012.478933 422.749446l-285.371608 263.350984h285.371608z" fill="#FFFFFF" opacity=".31" p-id="4538"></path><path d="M338.94694 708.052092a17.240654 17.240654 0 0 1-17.240654-17.240653v-393.690325a17.240654 17.240654 0 0 1 34.481307 0v393.690325a17.240654 17.240654 0 0 1-17.240653 17.240653z" fill="#6E6E96" p-id="4539"></path><path d="M1020.202746 708.052092H573.493101a17.240654 17.240654 0 0 1 0-34.481307h429.468991v-359.209017h-429.468991a17.240654 17.240654 0 0 1 0-34.481308h446.709645a17.240654 17.240654 0 0 1 17.240654 17.240654v393.690325a17.240654 17.240654 0 0 1-17.240654 17.240653z" fill="#6E6E96" p-id="4540"></path><path d="M53.971866 49.196205h519.516925v938.891514H53.971866z" fill="#D5D5E0" p-id="4541"></path><path d="M573.488791 49.196205H41.041376v938.891514H106.892052V91.759069h466.596739z" fill="#F2F2FF" opacity=".49" p-id="4542"></path><path d="M139.218278 285.294026h347.14487v40.653461H139.218278z" fill="#F2F2FF" opacity=".49" p-id="4543"></path><path d="M530.387157 1005.328372H97.0735c-33.274461 0-60.342288-27.067826-60.342288-60.342287V92.297839c0-33.274461 27.067826-60.342288 60.342288-60.342288h433.313657c33.274461 0 60.342288 27.067826 60.342288 60.342288v852.688246c0 33.274461-27.067826 60.342288-60.342288 60.342287zM97.0735 66.436859c-14.262331 0-25.86098 11.59865-25.86098 25.86098v852.688246c0 14.262331 11.59865 25.86098 25.86098 25.86098h433.313657c14.262331 0 25.86098-11.59865 25.86098-25.86098V92.297839c0-14.262331-11.59865-25.86098-25.86098-25.86098H97.0735z" fill="#6E6E96" p-id="4544"></path><path d="M524.977902 91.759069v827.314313H53.971866v64.941232H524.977902v4.073105h48.510889V91.759069z" fill="#6E6E96" opacity=".15" p-id="4545"></path><path d="M139.218278 268.053372h347.14487v34.481307H139.218278zM139.218278 399.09096h347.14487v34.481307H139.218278z" fill="#6E6E96" p-id="4546"></path><path d="M139.218278 376.837586h347.14487v39.494027H139.218278zM139.218278 242.313076h353.433399v36.166581h-353.433399z" fill="#6E6E96" opacity=".15" p-id="4547"></path><path d="M174.777126 681.173913m-22.628358 0a22.628358 22.628358 0 1 0 45.256716 0 22.628358 22.628358 0 1 0-45.256716 0Z" fill="#6E6E96" p-id="4548"></path><path d="M246.166362 681.173913m-22.628358 0a22.628358 22.628358 0 1 0 45.256716 0 22.628358 22.628358 0 1 0-45.256716 0Z" fill="#6E6E96" p-id="4549"></path><path d="M317.551288 681.173913m-22.628357 0a22.628358 22.628358 0 1 0 45.256715 0 22.628358 22.628358 0 1 0-45.256715 0Z" fill="#6E6E96" p-id="4550"></path><path d="M388.940525 681.173913m-22.628358 0a22.628358 22.628358 0 1 0 45.256716 0 22.628358 22.628358 0 1 0-45.256716 0Z" fill="#6E6E96" p-id="4551"></path><path d="M460.325451 681.173913m-22.628358 0a22.628358 22.628358 0 1 0 45.256716 0 22.628358 22.628358 0 1 0-45.256716 0Z" fill="#6E6E96" p-id="4552"></path><path d="M174.777126 755.524232m-22.628358 0a22.628358 22.628358 0 1 0 45.256716 0 22.628358 22.628358 0 1 0-45.256716 0Z" fill="#6E6E96" p-id="4553"></path><path d="M246.166362 755.524232m-22.628358 0a22.628358 22.628358 0 1 0 45.256716 0 22.628358 22.628358 0 1 0-45.256716 0Z" fill="#6E6E96" p-id="4554"></path><path d="M317.551288 755.524232m-22.628357 0a22.628358 22.628358 0 1 0 45.256715 0 22.628358 22.628358 0 1 0-45.256715 0Z" fill="#6E6E96" p-id="4555"></path><path d="M388.940525 755.524232m-22.628358 0a22.628358 22.628358 0 1 0 45.256716 0 22.628358 22.628358 0 1 0-45.256716 0Z" fill="#6E6E96" p-id="4556"></path><path d="M460.325451 755.524232m-22.628358 0a22.628358 22.628358 0 1 0 45.256716 0 22.628358 22.628358 0 1 0-45.256716 0Z" fill="#6E6E96" p-id="4557"></path><path d="M174.777126 833.107173m-22.628358 0a22.628358 22.628358 0 1 0 45.256716 0 22.628358 22.628358 0 1 0-45.256716 0Z" fill="#6E6E96" p-id="4558"></path><path d="M246.166362 833.107173m-22.628358 0a22.628358 22.628358 0 1 0 45.256716 0 22.628358 22.628358 0 1 0-45.256716 0Z" fill="#6E6E96" p-id="4559"></path><path d="M317.551288 833.107173m-22.628357 0a22.628358 22.628358 0 1 0 45.256715 0 22.628358 22.628358 0 1 0-45.256715 0Z" fill="#6E6E96" p-id="4560"></path><path d="M388.940525 833.107173m-22.628358 0a22.628358 22.628358 0 1 0 45.256716 0 22.628358 22.628358 0 1 0-45.256716 0Z" fill="#6E6E96" p-id="4561"></path><path d="M460.325451 833.107173m-22.628358 0a22.628358 22.628358 0 1 0 45.256716 0 22.628358 22.628358 0 1 0-45.256716 0Z" fill="#6E6E96" p-id="4562"></path><path d="M435.542011 543.248685m-39.869011 0a39.869011 39.869011 0 1 0 79.738023 0 39.869011 39.869011 0 1 0-79.738023 0Z" fill="#93DFC8" p-id="4563"></path><path d="M435.542011 600.35835c-31.490054 0-57.109665-25.619611-57.109665-57.109665s25.619611-57.109665 57.109665-57.109665 57.109665 25.619611 57.109666 57.109665-25.619611 57.109665-57.109666 57.109665z m0-79.738023c-12.477923 0-22.628358 10.150435-22.628357 22.628358s10.150435 22.628358 22.628357 22.628357 22.628358-10.150435 22.628358-22.628357-10.150435-22.628358-22.628358-22.628358z" fill="#6E6E96" p-id="4564"></path><path d="M139.218278 158.566601h347.14487v36.636389H139.218278z" fill="#F2F2FF" opacity=".49" p-id="4565"></path><path d="M486.363148 433.572267H139.218278a17.240654 17.240654 0 0 1-17.240654-17.240654V154.256438a17.240654 17.240654 0 0 1 17.240654-17.240654h347.14487a17.240654 17.240654 0 0 1 17.240654 17.240654v262.075175a17.240654 17.240654 0 0 1-17.240654 17.240654z m-329.904217-34.481307h312.663564V171.497091H156.458931v227.593869z" fill="#6E6E96" p-id="4566"></path><path d="M389.436194 203.823317h49.59274v34.481307H389.436194z" fill="#6E6E96" p-id="4567"></path><path d="M389.436194 333.128219h49.59274v34.481307H389.436194z" fill="#6E6E96" p-id="4568"></path></svg>